<svg id="Capa_1" enable-background="new 0 0 512 512" height="512" viewBox="0 0 512 512" width="512" xmlns="http://www.w3.org/2000/svg"><g><g><g><path d="m0 344.943v-302.764c0-5.69 4.612-10.302 10.302-10.302h491.396c5.69 0 10.302 4.612 10.302 10.302v302.765c0 5.69-4.612 10.302-10.302 10.302h-491.396c-5.69-.001-10.302-4.613-10.302-10.303z" fill="#e175a5"/></g><g><path d="m484.943 31.877v207.215c-26.448-22.314-60.589-35.781-97.821-35.781-74.545 0-136.721 53.964-149.52 124.878h-237.602v16.755c0 5.69 4.612 10.302 10.302 10.302h491.396c5.69 0 10.302-4.612 10.302-10.302v-302.765c0-5.69-4.612-10.302-10.302-10.302z" fill="#de5791"/></g><g><path d="m205.78 204.578v-91.2c0-7 7.52-11.424 13.639-8.025l82.08 45.6c6.296 3.498 6.296 12.552 0 16.05l-82.08 45.6c-6.119 3.399-13.639-1.025-13.639-8.025z" fill="#f5fcff"/></g></g><g><path d="m327.921 292.234h-274.026c-4.267 0-7.726-3.459-7.726-7.726s3.459-7.726 7.726-7.726h274.026c4.267 0 7.726 3.459 7.726 7.726s-3.459 7.726-7.726 7.726z" fill="#9facba"/></g><g><path d="m128 309.076c-4.267 0-7.726-3.459-7.726-7.726v-33.684c0-4.268 3.459-7.726 7.726-7.726s7.726 3.459 7.726 7.726v33.684c0 4.268-3.459 7.726-7.726 7.726z" fill="#62a4fb"/></g><g><circle cx="387.122" cy="355.245" fill="#f8e883" r="124.878"/></g><g><path d="m460 253.835c14.765 20.51 23.467 45.676 23.467 72.877 0 68.968-55.91 124.878-124.878 124.878-27.202 0-52.368-8.702-72.878-23.467 22.671 31.492 59.644 52.001 101.411 52.001 68.968 0 124.878-55.91 124.878-124.878 0-41.768-20.509-78.74-52-101.411z" fill="#f5de46"/></g><g><path d="m415.242 410.597c-1.167 0-2.351-.266-3.464-.825l-81.124-40.783c-3.812-1.916-5.35-6.561-3.433-10.374 1.917-3.812 6.56-5.347 10.373-3.433l81.124 40.783c3.812 1.917 5.35 6.561 3.433 10.374-1.357 2.698-4.081 4.258-6.909 4.258z" fill="#75cff9"/></g><g><path d="m327.927 359.252c-2.828 0-5.552-1.558-6.909-4.259-1.917-3.812-.38-8.457 3.433-10.373l91.887-46.193c3.812-1.914 8.457-.38 10.373 3.434 1.917 3.812.38 8.457-3.433 10.373l-91.887 46.193c-1.113.559-2.298.825-3.464.825z" fill="#75cff9"/></g><g><circle cx="320.52" cy="355.245" fill="#91dafa" r="24.976"/></g><g><circle cx="426.588" cy="301.918" fill="#91dafa" r="24.976"/></g><g><circle cx="426.588" cy="408.572" fill="#91dafa" r="24.976"/></g></g></svg>